# Blender 3.6.2
# www.blender.org
mtllib sellingHouse.mtl
o Cube
v 4.560400 6.818940 -0.598976
v -4.560399 6.818940 -0.598976
v 4.560399 2.634848 -0.598976
v -4.560399 2.634849 -0.598976
v 4.560399 6.818940 -2.598976
v -4.560399 6.818940 -2.598976
v 4.560399 2.634848 -2.598976
v -4.560400 2.634849 -2.598976
vn -0.0000 -0.0000 1.0000
vn -0.0000 -1.0000 -0.0000
vn -0.0000 -0.0000 -1.0000
vn -0.0000 1.0000 -0.0000
vn 1.0000 -0.0000 -0.0000
vn -1.0000 -0.0000 -0.0000
vt 0.375000 0.000000
vt 0.625000 0.000000
vt 0.625000 0.250000
vt 0.375000 0.250000
vt 1.375930 -0.245205
vt 0.372522 -0.247945
vt -0.001704 -0.001370
vt 1.001704 0.001370
vt 1.004182 0.999315
vt 0.000774 0.996575
vt 0.375000 0.750000
vt 1.378408 0.752740
vt 0.625000 1.000000
vt 0.375000 1.000000
vt 0.125000 0.500000
vt 0.125000 0.750000
vt 0.875000 0.500000
vt 0.875000 0.750000
s 0
usemtl Material.004
f 1/1/1 2/2/1 4/3/1 3/4/1
f 3/4/2 4/3/2 8/5/2 7/6/2
f 7/7/3 8/8/3 6/9/3 5/10/3
f 5/11/4 6/12/4 2/13/4 1/14/4
f 3/15/5 7/6/5 5/11/5 1/16/5
f 8/5/6 4/17/6 2/18/6 6/12/6
o Cube.001
v -6.727451 -1.522583 4.952068
v -6.727451 6.931561 4.952068
v -6.727451 -1.522583 -1.522583
v -6.727451 6.931561 -1.522583
v 6.727451 -1.522583 4.952068
v 6.727451 6.931561 4.952068
v 6.727451 -1.522583 -1.522583
v 6.727451 6.931561 -1.522583
vn -1.0000 -0.0000 -0.0000
vn -0.0000 -0.0000 -1.0000
vn 1.0000 -0.0000 -0.0000
vn -0.0000 -0.0000 1.0000
vn -0.0000 -1.0000 -0.0000
vn -0.0000 1.0000 -0.0000
vt 0.375000 0.000000
vt 0.625000 0.000000
vt 0.625000 0.250000
vt 0.375000 0.250000
vt 0.625000 0.500000
vt 0.375000 0.500000
vt 0.625000 0.750000
vt 0.375000 0.750000
vt 0.625000 1.000000
vt 0.375000 1.000000
vt 0.125000 0.500000
vt 0.125000 0.750000
vt 0.875000 0.500000
vt 0.875000 0.750000
s 0
usemtl Material.005
f 9/19/7 10/20/7 12/21/7 11/22/7
f 11/22/8 12/21/8 16/23/8 15/24/8
f 15/24/9 16/23/9 14/25/9 13/26/9
f 13/26/10 14/25/10 10/27/10 9/28/10
f 11/29/11 15/24/11 13/26/11 9/30/11
f 16/23/12 12/31/12 10/32/12 14/25/12
